<svg xmlns="http://www.w3.org/2000/svg" xmlns:xlink="http://www.w3.org/1999/xlink" contentStyleType="text/css" data-diagram-type="SEQUENCE" height="859px" preserveAspectRatio="none" style="width:1300px;height:859px;background:#FFFFFF;" version="1.1" viewBox="0 0 1300 859" width="1300px" zoomAndPan="magnify"><title>Option 1: Event-based ParameterSet Distribution (mw::com IPC)</title><defs/><g><text fill="#000000" font-family="sans-serif" font-size="14" font-weight="bold" lengthAdjust="spacing" textLength="444.7082" x="424.1356" y="29.9659">Option 1: Event-based ParameterSet Distribution (mw::com IPC)</text><g><title>Filesystem</title><rect fill="#000000" fill-opacity="0.00000" height="668.1203" width="8" x="42.4889" y="110.1358"/><line style="stroke:#181818;stroke-width:0.5;stroke-dasharray:5,5;" x1="46" x2="46" y1="110.1358" y2="778.2562"/></g><g><title>ParameterSetCollection</title><rect fill="#000000" fill-opacity="0.00000" height="668.1203" width="8" x="178.6074" y="110.1358"/><line style="stroke:#181818;stroke-width:0.5;stroke-dasharray:5,5;" x1="181.9777" x2="181.9777" y1="110.1358" y2="778.2562"/></g><g><title>ConfigDaemon</title><rect fill="#000000" fill-opacity="0.00000" height="668.1203" width="8" x="329.832" y="110.1358"/><line style="stroke:#181818;stroke-width:0.5;stroke-dasharray:5,5;" x1="333.2372" x2="333.2372" y1="110.1358" y2="778.2562"/></g><g><title>mw..com Skeleton</title><rect fill="#000000" fill-opacity="0.00000" height="668.1203" width="8" x="597.3611" y="110.1358"/><line style="stroke:#181818;stroke-width:0.5;stroke-dasharray:5,5;" x1="601.2805" x2="601.2805" y1="110.1358" y2="778.2562"/></g><g><title>Shared Memory</title><rect fill="#000000" fill-opacity="0.00000" height="668.1203" width="8" x="817.0373" y="110.1358"/><line style="stroke:#181818;stroke-width:0.5;stroke-dasharray:5,5;" x1="820.4395" x2="820.4395" y1="110.1358" y2="778.2562"/></g><g><title>mw..com Proxy</title><rect fill="#000000" fill-opacity="0.00000" height="668.1203" width="8" x="962.7954" y="110.1358"/><line style="stroke:#181818;stroke-width:0.5;stroke-dasharray:5,5;" x1="966.4026" x2="966.4026" y1="110.1358" y2="778.2562"/></g><g><title>ConfigProvider</title><rect fill="#000000" fill-opacity="0.00000" height="668.1203" width="8" x="1228.6086" y="110.1358"/><line style="stroke:#181818;stroke-width:0.5;stroke-dasharray:5,5;" x1="1232.2378" x2="1232.2378" y1="110.1358" y2="778.2562"/></g><g class="participant participant-head" data-participant="FS"><rect fill="#E2E2F0" height="33.0679" rx="2.5" ry="2.5" style="stroke:#181818;stroke-width:0.5;" width="82.9777" x="5" y="76.0679"/><text fill="#000000" font-family="sans-serif" font-size="14" lengthAdjust="spacing" textLength="68.9777" x="12" y="98.0339">Filesystem</text></g><g class="participant participant-tail" data-participant="FS"><rect fill="#E2E2F0" height="33.0679" rx="2.5" ry="2.5" style="stroke:#181818;stroke-width:0.5;" width="82.9777" x="5" y="777.2562"/><text fill="#000000" font-family="sans-serif" font-size="14" lengthAdjust="spacing" textLength="68.9777" x="12" y="799.2221">Filesystem</text></g><g class="participant participant-head" data-participant="PSC"><rect fill="#E2E2F0" height="33.0679" rx="2.5" ry="2.5" style="stroke:#181818;stroke-width:0.5;" width="169.2594" x="97.9777" y="76.0679"/><text fill="#000000" font-family="sans-serif" font-size="14" lengthAdjust="spacing" textLength="155.2594" x="104.9777" y="98.0339">ParameterSetCollection</text></g><g class="participant participant-tail" data-participant="PSC"><rect fill="#E2E2F0" height="33.0679" rx="2.5" ry="2.5" style="stroke:#181818;stroke-width:0.5;" width="169.2594" x="97.9777" y="777.2562"/><text fill="#000000" font-family="sans-serif" font-size="14" lengthAdjust="spacing" textLength="155.2594" x="104.9777" y="799.2221">ParameterSetCollection</text></g><g class="participant participant-head" data-participant="ConfigDaemon"><rect fill="#E2E2F0" height="33.0679" rx="2.5" ry="2.5" style="stroke:#181818;stroke-width:0.5;" width="113.1896" x="277.2372" y="76.0679"/><text fill="#000000" font-family="sans-serif" font-size="14" lengthAdjust="spacing" textLength="99.1896" x="284.2372" y="98.0339">ConfigDaemon</text></g><g class="participant participant-tail" data-participant="ConfigDaemon"><rect fill="#E2E2F0" height="33.0679" rx="2.5" ry="2.5" style="stroke:#181818;stroke-width:0.5;" width="113.1896" x="277.2372" y="777.2562"/><text fill="#000000" font-family="sans-serif" font-size="14" lengthAdjust="spacing" textLength="99.1896" x="284.2372" y="799.2221">ConfigDaemon</text></g><g class="participant participant-head" data-participant="Skeleton"><rect fill="#E2E2F0" height="52.1358" rx="2.5" ry="2.5" style="stroke:#181818;stroke-width:0.5;" width="232.1612" x="485.2805" y="57"/><text fill="#000000" font-family="sans-serif" font-size="14" lengthAdjust="spacing" textLength="120.2595" x="541.2314" y="78.9659">mw::com Skeleton</text><text fill="#000000" font-family="sans-serif" font-size="14" lengthAdjust="spacing" textLength="218.1612" x="492.2805" y="98.0339">(ParameterSetEventServicePPort)</text></g><g class="participant participant-tail" data-participant="Skeleton"><rect fill="#E2E2F0" height="52.1358" rx="2.5" ry="2.5" style="stroke:#181818;stroke-width:0.5;" width="232.1612" x="485.2805" y="777.2562"/><text fill="#000000" font-family="sans-serif" font-size="14" lengthAdjust="spacing" textLength="120.2595" x="541.2314" y="799.2221">mw::com Skeleton</text><text fill="#000000" font-family="sans-serif" font-size="14" lengthAdjust="spacing" textLength="218.1612" x="492.2805" y="818.29">(ParameterSetEventServicePPort)</text></g><g class="participant participant-head" data-participant="SHM"><text fill="#000000" font-family="sans-serif" font-size="14" lengthAdjust="spacing" textLength="105.1956" x="765.4395" y="106.0339">Shared Memory</text><path d="M803.0373,55.0679 C803.0373,45.0679 821.0373,45.0679 821.0373,45.0679 C821.0373,45.0679 839.0373,45.0679 839.0373,55.0679 L839.0373,81.0679 C839.0373,91.0679 821.0373,91.0679 821.0373,91.0679 C821.0373,91.0679 803.0373,91.0679 803.0373,81.0679 L803.0373,55.0679" fill="#E2E2F0" style="stroke:#181818;stroke-width:0.5;"/><path d="M803.0373,55.0679 C803.0373,65.0679 821.0373,65.0679 821.0373,65.0679 C821.0373,65.0679 839.0373,65.0679 839.0373,55.0679" fill="none" style="stroke:#181818;stroke-width:0.5;"/></g><g class="participant participant-tail" data-participant="SHM"><text fill="#000000" font-family="sans-serif" font-size="14" lengthAdjust="spacing" textLength="105.1956" x="765.4395" y="792.2221">Shared Memory</text><path d="M803.0373,806.3241 C803.0373,796.3241 821.0373,796.3241 821.0373,796.3241 C821.0373,796.3241 839.0373,796.3241 839.0373,806.3241 L839.0373,832.3241 C839.0373,842.3241 821.0373,842.3241 821.0373,842.3241 C821.0373,842.3241 803.0373,842.3241 803.0373,832.3241 L803.0373,806.3241" fill="#E2E2F0" style="stroke:#181818;stroke-width:0.5;"/><path d="M803.0373,806.3241 C803.0373,816.3241 821.0373,816.3241 821.0373,816.3241 C821.0373,816.3241 839.0373,816.3241 839.0373,806.3241" fill="none" style="stroke:#181818;stroke-width:0.5;"/></g><g class="participant participant-head" data-participant="Proxy"><rect fill="#E2E2F0" height="33.0679" rx="2.5" ry="2.5" style="stroke:#181818;stroke-width:0.5;" width="114.7856" x="909.4026" y="76.0679"/><text fill="#000000" font-family="sans-serif" font-size="14" lengthAdjust="spacing" textLength="100.7856" x="916.4026" y="98.0339">mw::com Proxy</text></g><g class="participant participant-tail" data-participant="Proxy"><rect fill="#E2E2F0" height="33.0679" rx="2.5" ry="2.5" style="stroke:#181818;stroke-width:0.5;" width="114.7856" x="909.4026" y="777.2562"/><text fill="#000000" font-family="sans-serif" font-size="14" lengthAdjust="spacing" textLength="100.7856" x="916.4026" y="799.2221">mw::com Proxy</text></g><g class="participant participant-head" data-participant="CP"><rect fill="#E2E2F0" height="33.0679" rx="2.5" ry="2.5" style="stroke:#181818;stroke-width:0.5;" width="112.7416" x="1176.2378" y="76.0679"/><text fill="#000000" font-family="sans-serif" font-size="14" lengthAdjust="spacing" textLength="98.7416" x="1183.2378" y="98.0339">ConfigProvider</text></g><g class="participant participant-tail" data-participant="CP"><rect fill="#E2E2F0" height="33.0679" rx="2.5" ry="2.5" style="stroke:#181818;stroke-width:0.5;" width="112.7416" x="1176.2378" y="777.2562"/><text fill="#000000" font-family="sans-serif" font-size="14" lengthAdjust="spacing" textLength="98.7416" x="1183.2378" y="799.2221">ConfigProvider</text></g><rect fill="#EEEEEE" height="3" style="stroke:#EEEEEE;stroke-width:1;" width="1293.9794" x="0" y="141.9888"/><line style="stroke:#000000;stroke-width:1;" x1="0" x2="1293.9794" y1="141.9888" y2="141.9888"/><line style="stroke:#000000;stroke-width:1;" x1="0" x2="1293.9794" y1="144.9888" y2="144.9888"/><rect fill="#EEEEEE" height="25.706" style="stroke:#000000;stroke-width:2;" width="100.723" x="596.6282" y="130.1358"/><text fill="#000000" font-family="sans-serif" font-size="13" font-weight="bold" lengthAdjust="spacing" textLength="83.343" x="602.6282" y="148.0328">Initialization</text><g class="message" data-participant-1="ConfigDaemon" data-participant-2="FS"><polygon fill="#181818" points="57.4889,203.2539,47.4889,207.2539,57.4889,211.2539,53.4889,207.2539" style="stroke:#181818;stroke-width:1;"/><line style="stroke:#181818;stroke-width:1;" x1="51.4889" x2="332.832" y1="207.2539" y2="207.2539"/><text fill="#000000" font-family="sans-serif" font-size="13" lengthAdjust="spacing" textLength="139.4381" x="63.4889" y="183.7389">read payload size from</text><text fill="#000000" font-family="sans-serif" font-size="13" lengthAdjust="spacing" textLength="138.1251" x="66.8689" y="201.4449">buffer_size_needs.json</text></g><g class="message" data-participant-1="FS" data-participant-2="ConfigDaemon"><polygon fill="#181818" points="321.832,234.9599,331.832,238.9599,321.832,242.9599,325.832,238.9599" style="stroke:#181818;stroke-width:1;"/><line style="stroke:#181818;stroke-width:1;stroke-dasharray:2,2;" x1="46.4889" x2="327.832" y1="238.9599" y2="238.9599"/><text fill="#000000" font-family="sans-serif" font-size="13" lengthAdjust="spacing" textLength="74.828" x="53.4889" y="233.1509">payload size</text></g><g class="message" data-participant-1="ConfigDaemon" data-participant-2="Skeleton"><polygon fill="#181818" points="589.3611,284.3719,599.3611,288.3719,589.3611,292.3719,593.3611,288.3719" style="stroke:#181818;stroke-width:1;"/><line style="stroke:#181818;stroke-width:1;" x1="333.832" x2="595.3611" y1="288.3719" y2="288.3719"/><text fill="#000000" font-family="sans-serif" font-size="13" lengthAdjust="spacing" textLength="243.5292" x="340.832" y="264.8569">create Skeleton with each ParameterSet</text><text fill="#000000" font-family="sans-serif" font-size="13" lengthAdjust="spacing" textLength="193.6221" x="344.212" y="282.5629">as a separate event service port</text></g><g class="message" data-participant-1="Skeleton" data-participant-2="SHM"><polygon fill="#181818" points="809.0373,333.784,819.0373,337.784,809.0373,341.784,813.0373,337.784" style="stroke:#181818;stroke-width:1;"/><line style="stroke:#181818;stroke-width:1;" x1="601.3611" x2="815.0373" y1="337.784" y2="337.784"/><text fill="#000000" font-family="sans-serif" font-size="13" lengthAdjust="spacing" textLength="147.9401" x="608.3611" y="314.2689">allocate shared memory</text><text fill="#000000" font-family="sans-serif" font-size="13" lengthAdjust="spacing" textLength="195.6762" x="608.3611" y="331.975">(2 slots per ParameterSet event)</text></g><rect fill="#EEEEEE" height="3" style="stroke:#EEEEEE;stroke-width:1;" width="1293.9794" x="0" y="367.637"/><line style="stroke:#000000;stroke-width:1;" x1="0" x2="1293.9794" y1="367.637" y2="367.637"/><line style="stroke:#000000;stroke-width:1;" x1="0" x2="1293.9794" y1="370.637" y2="370.637"/><rect fill="#EEEEEE" height="25.706" style="stroke:#000000;stroke-width:2;" width="220.9601" x="536.5096" y="355.784"/><text fill="#000000" font-family="sans-serif" font-size="13" font-weight="bold" lengthAdjust="spacing" textLength="203.5801" x="542.5096" y="373.681">Runtime: ParameterSet Update</text><g class="message" data-participant-1="ConfigDaemon" data-participant-2="Skeleton"><polygon fill="#181818" points="589.3611,411.196,599.3611,415.196,589.3611,419.196,593.3611,415.196" style="stroke:#181818;stroke-width:1;"/><line style="stroke:#181818;stroke-width:1;" x1="333.832" x2="595.3611" y1="415.196" y2="415.196"/><text fill="#000000" font-family="sans-serif" font-size="13" lengthAdjust="spacing" textLength="75.166" x="340.832" y="409.387">OfferService</text></g><g class="message" data-participant-1="CP" data-participant-2="Proxy"><polygon fill="#181818" points="977.7954,460.608,967.7954,464.608,977.7954,468.608,973.7954,464.608" style="stroke:#181818;stroke-width:1;"/><line style="stroke:#181818;stroke-width:1;" x1="971.7954" x2="1231.6086" y1="464.608" y2="464.608"/><text fill="#000000" font-family="sans-serif" font-size="13" lengthAdjust="spacing" textLength="205.5562" x="983.7954" y="441.093">subscribe to ParameterSet events</text><text fill="#000000" font-family="sans-serif" font-size="13" lengthAdjust="spacing" textLength="126.9971" x="983.7954" y="458.799">(by registered name)</text></g><g class="message" data-participant-1="Proxy" data-participant-2="Skeleton"><polygon fill="#181818" points="612.3611,474.608,602.3611,478.608,612.3611,482.608,608.3611,478.608" style="stroke:#181818;stroke-width:1;"/><line style="stroke:#181818;stroke-width:1;" x1="606.3611" x2="965.7954" y1="478.608" y2="478.608"/></g><g class="message" data-participant-1="Skeleton" data-participant-2="Proxy"><polygon fill="#181818" points="954.7954,488.608,964.7954,492.608,954.7954,496.608,958.7954,492.608" style="stroke:#181818;stroke-width:1;"/><line style="stroke:#181818;stroke-width:1;stroke-dasharray:2,2;" x1="601.3611" x2="960.7954" y1="492.608" y2="492.608"/></g><g class="message" data-participant-1="Proxy" data-participant-2="CP"><polygon fill="#181818" points="1220.6086,502.608,1230.6086,506.608,1220.6086,510.608,1224.6086,506.608" style="stroke:#181818;stroke-width:1;"/><line style="stroke:#181818;stroke-width:1;stroke-dasharray:2,2;" x1="966.7954" x2="1226.6086" y1="506.608" y2="506.608"/></g><g class="message" data-participant-1="PSC" data-participant-2="Skeleton"><polygon fill="#181818" points="589.3611,534.314,599.3611,538.314,589.3611,542.314,593.3611,538.314" style="stroke:#181818;stroke-width:1;"/><line style="stroke:#181818;stroke-width:1;" x1="182.6074" x2="595.3611" y1="538.314" y2="538.314"/><text fill="#000000" font-family="sans-serif" font-size="13" lengthAdjust="spacing" textLength="211.9912" x="189.6074" y="532.505">send(event) for each ParameterSet</text></g><g class="message" data-participant-1="Skeleton" data-participant-2="SHM"><polygon fill="#181818" points="809.0373,583.7261,819.0373,587.7261,809.0373,591.7261,813.0373,587.7261" style="stroke:#181818;stroke-width:1;"/><line style="stroke:#181818;stroke-width:1;" x1="601.3611" x2="815.0373" y1="587.7261" y2="587.7261"/><text fill="#000000" font-family="sans-serif" font-size="13" lengthAdjust="spacing" textLength="98.9951" x="608.3611" y="564.2111">write event data</text><text fill="#000000" font-family="sans-serif" font-size="13" lengthAdjust="spacing" textLength="93.7041" x="608.3611" y="581.9171">(slot 0 or slot 1)</text></g><g class="message" data-participant-1="SHM" data-participant-2="Skeleton"><polygon fill="#181818" points="612.3611,597.7261,602.3611,601.7261,612.3611,605.7261,608.3611,601.7261" style="stroke:#181818;stroke-width:1;"/><line style="stroke:#181818;stroke-width:1;stroke-dasharray:2,2;" x1="606.3611" x2="820.0373" y1="601.7261" y2="601.7261"/></g><g class="message" data-participant-1="Skeleton" data-participant-2="PSC"><polygon fill="#181818" points="193.6074,611.7261,183.6074,615.7261,193.6074,619.7261,189.6074,615.7261" style="stroke:#181818;stroke-width:1;"/><line style="stroke:#181818;stroke-width:1;stroke-dasharray:2,2;" x1="187.6074" x2="600.3611" y1="615.7261" y2="615.7261"/></g><g class="message" data-participant-1="CP" data-participant-2="Proxy"><polygon fill="#181818" points="977.7954,643.4321,967.7954,647.4321,977.7954,651.4321,973.7954,647.4321" style="stroke:#181818;stroke-width:1;"/><line style="stroke:#181818;stroke-width:1;" x1="971.7954" x2="1231.6086" y1="647.4321" y2="647.4321"/><text fill="#000000" font-family="sans-serif" font-size="13" lengthAdjust="spacing" textLength="113.1521" x="983.7954" y="641.6231">GetParameterSet()</text></g><g class="message" data-participant-1="Proxy" data-participant-2="SHM"><polygon fill="#181818" points="832.0373,675.1381,822.0373,679.1381,832.0373,683.1381,828.0373,679.1381" style="stroke:#181818;stroke-width:1;"/><line style="stroke:#181818;stroke-width:1;" x1="826.0373" x2="965.7954" y1="679.1381" y2="679.1381"/><text fill="#000000" font-family="sans-serif" font-size="13" lengthAdjust="spacing" textLength="108.2121" x="838.0373" y="673.3291">GetNewSamples()</text></g><g class="message" data-participant-1="SHM" data-participant-2="Proxy"><polygon fill="#181818" points="954.7954,706.8441,964.7954,710.8441,954.7954,714.8441,958.7954,710.8441" style="stroke:#181818;stroke-width:1;"/><line style="stroke:#181818;stroke-width:1;stroke-dasharray:2,2;" x1="821.0373" x2="960.7954" y1="710.8441" y2="710.8441"/><text fill="#000000" font-family="sans-serif" font-size="13" lengthAdjust="spacing" textLength="121.7581" x="828.0373" y="705.0351">return new samples</text></g><g class="message" data-participant-1="Proxy" data-participant-2="CP"><polygon fill="#181818" points="1220.6086,756.2562,1230.6086,760.2562,1220.6086,764.2562,1224.6086,760.2562" style="stroke:#181818;stroke-width:1;"/><line style="stroke:#181818;stroke-width:1;stroke-dasharray:2,2;" x1="966.7954" x2="1226.6086" y1="760.2562" y2="760.2562"/><text fill="#000000" font-family="sans-serif" font-size="13" lengthAdjust="spacing" textLength="139.0871" x="973.7954" y="736.7411">filter and get the latest</text><text fill="#000000" font-family="sans-serif" font-size="13" lengthAdjust="spacing" textLength="241.8132" x="973.7954" y="754.4472">sample for the requested ParameterSet</text></g><!--SRC=[TLHDSvim4BthL-pu10TtcXwPSI_Evy4DKwQtp6HaM6obGgBIOkhy-gv4IC2X9-FLqtlxtYwG8etms9Ao1guok3cXeVLUUgmWbqusIEWA9BXMdfpQTn6OD7sMbRQ1XtoR2j5AHwfKhJG4grkbqPyzORC2wU6sc1zFIRTMQom3OuJcnNQEtLfJgyErnEODCItCeMD3nM_KIDOycMIg56qLw4wgn3otZjB8Dw959Ka6qx0gZjAnznrBkFC0kjyjQ-NE_XqWyMcfTpuugGhTq7qkn6O33qQHabgzofZbPYF4r1UiltDea853MK4hpzhohrUl2BMppPE1VLVNw9v3wTaWLlxBYsSFV6dDTsTSsOpWayxedt4bon5-L7f5Hq1P7cThmEfiH897DXlm68Bblp5PQ3bPyKuH1Evtp2srjcL0-o7S9eRB8_e6NbloqAARRrkaJMDSFpj3gi5i3lZLLe5mARnHFuF7aDFRr1cNXzCuAkx9TtjVya8Za5tGzjpT_impEF3UOsZQC28Lm_M9oiJko3w2mZ1uvBpM5rbxD5KoM8JQkiynBsJOE_KUTzXMxYza1r-12UBJLIe2TFt_vlZzkepX3cagd4mTHbq6_C2-a4tBhtNo8J4IEAJE6J3OWnz0C_kCg9LcSf2cWWF7IqS4pRFpl4p3ZPX1A3lyqt7zujCZ_W40]--></g></svg>