<svg xmlns="http://www.w3.org/2000/svg" xmlns:xlink="http://www.w3.org/1999/xlink" contentStyleType="text/css" data-diagram-type="SEQUENCE" height="1211px" preserveAspectRatio="none" style="width:1690px;height:1211px;background:#FFFFFF;" version="1.1" viewBox="0 0 1690 1211" width="1690px" zoomAndPan="magnify"><title>Option 2: Method-based ParameterSet Distribution (mw::com IPC)</title><defs/><g><text fill="#000000" font-family="sans-serif" font-size="14" font-weight="bold" lengthAdjust="spacing" textLength="459.6322" x="611.6336" y="29.9659">Option 2: Method-based ParameterSet Distribution (mw::com IPC)</text><g><title>ConfigDaemon</title><rect fill="#000000" fill-opacity="0.00000" height="982.1805" width="8" x="57.5948" y="129.2038"/><line style="stroke:#181818;stroke-width:0.5;stroke-dasharray:5,5;" x1="61" x2="61" y1="129.2038" y2="1111.3842"/></g><g><title>ParameterSetCollection</title><rect fill="#000000" fill-opacity="0.00000" height="982.1805" width="8" x="208.8193" y="129.2038"/><line style="stroke:#181818;stroke-width:0.5;stroke-dasharray:5,5;" x1="212.1896" x2="212.1896" y1="129.2038" y2="1111.3842"/></g><g><title>mw..com Skeleton</title><rect fill="#000000" fill-opacity="0.00000" height="982.1805" width="8" x="458.0185" y="129.2038"/><line style="stroke:#181818;stroke-width:0.5;stroke-dasharray:5,5;" x1="461.6159" x2="461.6159" y1="129.2038" y2="1111.3842"/></g><g><title>Shared Memory</title><rect fill="#000000" fill-opacity="0.00000" height="982.1805" width="8" x="769.6957" y="129.2038"/><line style="stroke:#181818;stroke-width:0.5;stroke-dasharray:5,5;" x1="773.2741" x2="773.2741" y1="129.2038" y2="1111.3842"/></g><g><title>mw..com Proxy</title><rect fill="#000000" fill-opacity="0.00000" height="982.1805" width="8" x="1039.5779" y="129.2038"/><line style="stroke:#181818;stroke-width:0.5;stroke-dasharray:5,5;" x1="1043.0345" x2="1043.0345" y1="129.2038" y2="1111.3842"/></g><g><title>Polling Thread</title><rect fill="#000000" fill-opacity="0.00000" height="982.1805" width="8" x="1249.7492" y="129.2038"/><line style="stroke:#181818;stroke-width:0.5;stroke-dasharray:5,5;" x1="1253.1214" x2="1253.1214" y1="129.2038" y2="1111.3842"/></g><g><title>ParameterSet Cache</title><rect fill="#000000" fill-opacity="0.00000" height="982.1805" width="8" x="1388.3388" y="129.2038"/><line style="stroke:#181818;stroke-width:0.5;stroke-dasharray:5,5;" x1="1391.3771" x2="1391.3771" y1="129.2038" y2="1111.3842"/></g><g><title>ConfigProvider</title><rect fill="#000000" fill-opacity="0.00000" height="982.1805" width="8" x="1528.6714" y="129.2038"/><line style="stroke:#181818;stroke-width:0.5;stroke-dasharray:5,5;" x1="1532.3005" x2="1532.3005" y1="129.2038" y2="1111.3842"/></g><g class="participant participant-head" data-participant="ConfigDaemon"><rect fill="#E2E2F0" height="33.0679" rx="2.5" ry="2.5" style="stroke:#181818;stroke-width:0.5;" width="113.1896" x="5" y="95.1358"/><text fill="#000000" font-family="sans-serif" font-size="14" lengthAdjust="spacing" textLength="99.1896" x="12" y="117.1018">ConfigDaemon</text></g><g class="participant participant-tail" data-participant="ConfigDaemon"><rect fill="#E2E2F0" height="33.0679" rx="2.5" ry="2.5" style="stroke:#181818;stroke-width:0.5;" width="113.1896" x="5" y="1110.3842"/><text fill="#000000" font-family="sans-serif" font-size="14" lengthAdjust="spacing" textLength="99.1896" x="12" y="1132.3502">ConfigDaemon</text></g><g class="participant participant-head" data-participant="PSC"><rect fill="#E2E2F0" height="33.0679" rx="2.5" ry="2.5" style="stroke:#181818;stroke-width:0.5;" width="169.2594" x="128.1896" y="95.1358"/><text fill="#000000" font-family="sans-serif" font-size="14" lengthAdjust="spacing" textLength="155.2594" x="135.1896" y="117.1018">ParameterSetCollection</text></g><g class="participant participant-tail" data-participant="PSC"><rect fill="#E2E2F0" height="33.0679" rx="2.5" ry="2.5" style="stroke:#181818;stroke-width:0.5;" width="169.2594" x="128.1896" y="1110.3842"/><text fill="#000000" font-family="sans-serif" font-size="14" lengthAdjust="spacing" textLength="155.2594" x="135.1896" y="1132.3502">ParameterSetCollection</text></g><g class="participant participant-head" data-participant="Skeleton"><rect fill="#E2E2F0" height="52.1358" rx="2.5" ry="2.5" style="stroke:#181818;stroke-width:0.5;" width="232.8052" x="345.6159" y="76.0679"/><text fill="#000000" font-family="sans-serif" font-size="14" lengthAdjust="spacing" textLength="120.2595" x="401.8888" y="98.0339">mw::com Skeleton</text><text fill="#000000" font-family="sans-serif" font-size="14" lengthAdjust="spacing" textLength="218.8052" x="352.6159" y="117.1018">(InternalConfigProviderInterface)</text></g><g class="participant participant-tail" data-participant="Skeleton"><rect fill="#E2E2F0" height="52.1358" rx="2.5" ry="2.5" style="stroke:#181818;stroke-width:0.5;" width="232.8052" x="345.6159" y="1110.3842"/><text fill="#000000" font-family="sans-serif" font-size="14" lengthAdjust="spacing" textLength="120.2595" x="401.8888" y="1132.3502">mw::com Skeleton</text><text fill="#000000" font-family="sans-serif" font-size="14" lengthAdjust="spacing" textLength="218.8052" x="352.6159" y="1151.4181">(InternalConfigProviderInterface)</text></g><g class="participant participant-head" data-participant="SHM"><text fill="#000000" font-family="sans-serif" font-size="14" lengthAdjust="spacing" textLength="105.1956" x="718.0979" y="106.0339">Shared Memory</text><text fill="#000000" font-family="sans-serif" font-size="14" lengthAdjust="spacing" textLength="214.8432" x="663.2741" y="125.1018">(pre-allocated, max payload size)</text><path d="M755.6957,55.0679 C755.6957,45.0679 773.6957,45.0679 773.6957,45.0679 C773.6957,45.0679 791.6957,45.0679 791.6957,55.0679 L791.6957,81.0679 C791.6957,91.0679 773.6957,91.0679 773.6957,91.0679 C773.6957,91.0679 755.6957,91.0679 755.6957,81.0679 L755.6957,55.0679" fill="#E2E2F0" style="stroke:#181818;stroke-width:0.5;"/><path d="M755.6957,55.0679 C755.6957,65.0679 773.6957,65.0679 773.6957,65.0679 C773.6957,65.0679 791.6957,65.0679 791.6957,55.0679" fill="none" style="stroke:#181818;stroke-width:0.5;"/></g><g class="participant participant-tail" data-participant="SHM"><text fill="#000000" font-family="sans-serif" font-size="14" lengthAdjust="spacing" textLength="105.1956" x="718.0979" y="1125.3502">Shared Memory</text><text fill="#000000" font-family="sans-serif" font-size="14" lengthAdjust="spacing" textLength="214.8432" x="663.2741" y="1144.4181">(pre-allocated, max payload size)</text><path d="M755.6957,1158.5201 C755.6957,1148.5201 773.6957,1148.5201 773.6957,1148.5201 C773.6957,1148.5201 791.6957,1148.5201 791.6957,1158.5201 L791.6957,1184.5201 C791.6957,1194.5201 773.6957,1194.5201 773.6957,1194.5201 C773.6957,1194.5201 755.6957,1194.5201 755.6957,1184.5201 L755.6957,1158.5201" fill="#E2E2F0" style="stroke:#181818;stroke-width:0.5;"/><path d="M755.6957,1158.5201 C755.6957,1168.5201 773.6957,1168.5201 773.6957,1168.5201 C773.6957,1168.5201 791.6957,1168.5201 791.6957,1158.5201" fill="none" style="stroke:#181818;stroke-width:0.5;"/></g><g class="participant participant-head" data-participant="Proxy"><rect fill="#E2E2F0" height="52.1358" rx="2.5" ry="2.5" style="stroke:#181818;stroke-width:0.5;" width="291.0869" x="898.0345" y="76.0679"/><text fill="#000000" font-family="sans-serif" font-size="14" lengthAdjust="spacing" textLength="100.7856" x="993.1851" y="98.0339">mw::com Proxy</text><text fill="#000000" font-family="sans-serif" font-size="14" lengthAdjust="spacing" textLength="277.0869" x="905.0345" y="117.1018">(SemiDynamicSingleInstantiationStrategy)</text></g><g class="participant participant-tail" data-participant="Proxy"><rect fill="#E2E2F0" height="52.1358" rx="2.5" ry="2.5" style="stroke:#181818;stroke-width:0.5;" width="291.0869" x="898.0345" y="1110.3842"/><text fill="#000000" font-family="sans-serif" font-size="14" lengthAdjust="spacing" textLength="100.7856" x="993.1851" y="1132.3502">mw::com Proxy</text><text fill="#000000" font-family="sans-serif" font-size="14" lengthAdjust="spacing" textLength="277.0869" x="905.0345" y="1151.4181">(SemiDynamicSingleInstantiationStrategy)</text></g><g class="participant participant-head" data-participant="Poller"><rect fill="#E2E2F0" height="33.0679" rx="2.5" ry="2.5" style="stroke:#181818;stroke-width:0.5;" width="109.2556" x="1199.1214" y="95.1358"/><text fill="#000000" font-family="sans-serif" font-size="14" lengthAdjust="spacing" textLength="95.2556" x="1206.1214" y="117.1018">Polling Thread</text></g><g class="participant participant-tail" data-participant="Poller"><rect fill="#E2E2F0" height="33.0679" rx="2.5" ry="2.5" style="stroke:#181818;stroke-width:0.5;" width="109.2556" x="1199.1214" y="1110.3842"/><text fill="#000000" font-family="sans-serif" font-size="14" lengthAdjust="spacing" textLength="95.2556" x="1206.1214" y="1132.3502">Polling Thread</text></g><g class="participant participant-head" data-participant="Cache"><rect fill="#E2E2F0" height="33.0679" rx="2.5" ry="2.5" style="stroke:#181818;stroke-width:0.5;" width="147.9235" x="1318.3771" y="95.1358"/><text fill="#000000" font-family="sans-serif" font-size="14" lengthAdjust="spacing" textLength="133.9235" x="1325.3771" y="117.1018">ParameterSet Cache</text></g><g class="participant participant-tail" data-participant="Cache"><rect fill="#E2E2F0" height="33.0679" rx="2.5" ry="2.5" style="stroke:#181818;stroke-width:0.5;" width="147.9235" x="1318.3771" y="1110.3842"/><text fill="#000000" font-family="sans-serif" font-size="14" lengthAdjust="spacing" textLength="133.9235" x="1325.3771" y="1132.3502">ParameterSet Cache</text></g><g class="participant participant-head" data-participant="CP"><rect fill="#E2E2F0" height="33.0679" rx="2.5" ry="2.5" style="stroke:#181818;stroke-width:0.5;" width="112.7416" x="1476.3005" y="95.1358"/><text fill="#000000" font-family="sans-serif" font-size="14" lengthAdjust="spacing" textLength="98.7416" x="1483.3005" y="117.1018">ConfigProvider</text></g><g class="participant participant-tail" data-participant="CP"><rect fill="#E2E2F0" height="33.0679" rx="2.5" ry="2.5" style="stroke:#181818;stroke-width:0.5;" width="112.7416" x="1476.3005" y="1110.3842"/><text fill="#000000" font-family="sans-serif" font-size="14" lengthAdjust="spacing" textLength="98.7416" x="1483.3005" y="1132.3502">ConfigProvider</text></g><rect fill="#EEEEEE" height="3" style="stroke:#EEEEEE;stroke-width:1;" width="1683.8995" x="0" y="161.0568"/><line style="stroke:#000000;stroke-width:1;" x1="0" x2="1683.8995" y1="161.0568" y2="161.0568"/><line style="stroke:#000000;stroke-width:1;" x1="0" x2="1683.8995" y1="164.0568" y2="164.0568"/><rect fill="#EEEEEE" height="25.706" style="stroke:#000000;stroke-width:2;" width="100.723" x="791.5882" y="149.2038"/><text fill="#000000" font-family="sans-serif" font-size="13" font-weight="bold" lengthAdjust="spacing" textLength="83.343" x="797.5882" y="167.1008">Initialization</text><g class="message" data-participant-1="ConfigDaemon" data-participant-2="Skeleton"><polygon fill="#181818" points="450.0185,204.6158,460.0185,208.6158,450.0185,212.6158,454.0185,208.6158" style="stroke:#181818;stroke-width:1;"/><line style="stroke:#181818;stroke-width:1;" x1="61.5948" x2="456.0185" y1="208.6158" y2="208.6158"/><text fill="#000000" font-family="sans-serif" font-size="13" lengthAdjust="spacing" textLength="156.6891" x="68.5948" y="202.8068">Create(instance_specifier)</text></g><g class="message" data-participant-1="ConfigDaemon" data-participant-2="Skeleton"><polygon fill="#181818" points="450.0185,236.3218,460.0185,240.3218,450.0185,244.3218,454.0185,240.3218" style="stroke:#181818;stroke-width:1;"/><line style="stroke:#181818;stroke-width:1;" x1="61.5948" x2="456.0185" y1="240.3218" y2="240.3218"/><text fill="#000000" font-family="sans-serif" font-size="13" lengthAdjust="spacing" textLength="216.0732" x="68.5948" y="234.5128">RegisterHandler(get_parameterset)</text></g><g class="message" data-participant-1="Skeleton" data-participant-2="SHM"><polygon fill="#181818" points="761.6957,268.0278,771.6957,272.0278,761.6957,276.0278,765.6957,272.0278" style="stroke:#181818;stroke-width:1;"/><line style="stroke:#181818;stroke-width:1;" x1="462.0185" x2="767.6957" y1="272.0278" y2="272.0278"/><text fill="#000000" font-family="sans-serif" font-size="13" lengthAdjust="spacing" textLength="287.6772" x="469.0185" y="266.2188">register shared memory region for method call</text></g><g class="message" data-participant-1="SHM" data-participant-2="Skeleton"><polygon fill="#181818" points="473.0185,282.0278,463.0185,286.0278,473.0185,290.0278,469.0185,286.0278" style="stroke:#181818;stroke-width:1;"/><line style="stroke:#181818;stroke-width:1;stroke-dasharray:2,2;" x1="467.0185" x2="772.6957" y1="286.0278" y2="286.0278"/></g><g class="message" data-participant-1="Skeleton" data-participant-2="ConfigDaemon"><polygon fill="#181818" points="72.5948,296.0278,62.5948,300.0278,72.5948,304.0278,68.5948,300.0278" style="stroke:#181818;stroke-width:1;"/><line style="stroke:#181818;stroke-width:1;stroke-dasharray:2,2;" x1="66.5948" x2="461.0185" y1="300.0278" y2="300.0278"/></g><path d="M722,313.0278 L722,358.0278 L1364,358.0278 L1364,323.0278 L1354,313.0278 L722,313.0278" fill="#FEFFDD" style="stroke:#181818;stroke-width:0.5;"/><path d="M1354,313.0278 L1354,323.0278 L1364,323.0278 L1354,313.0278" fill="#FEFFDD" style="stroke:#181818;stroke-width:0.5;"/><text fill="#000000" font-family="sans-serif" font-size="13" lengthAdjust="spacing" textLength="621.9855" x="728" y="331.9248">additional_shm_size_bytes = meta info + max ParameterSet payload + max ParameterSet name length</text><text fill="#000000" font-family="sans-serif" font-size="13" lengthAdjust="spacing" textLength="331.5523" x="728" y="349.6308">all of which can be estimated statically at compile time</text><g class="message" data-participant-1="CP" data-participant-2="Proxy"><polygon fill="#181818" points="1054.5779,418.5579,1044.5779,422.5579,1054.5779,426.5579,1050.5779,422.5579" style="stroke:#181818;stroke-width:1;"/><line style="stroke:#181818;stroke-width:1;" x1="1048.5779" x2="1531.6714" y1="422.5579" y2="422.5579"/><text fill="#000000" font-family="sans-serif" font-size="13" lengthAdjust="spacing" textLength="98.9821" x="1060.5779" y="381.3369">Create proxy via</text><text fill="#000000" font-family="sans-serif" font-size="13" lengthAdjust="spacing" textLength="249.4962" x="1060.5779" y="399.0429">SemiDynamicSingleInstantiationStrategy</text><text fill="#000000" font-family="sans-serif" font-size="13" lengthAdjust="spacing" textLength="168.6622" x="1060.5779" y="416.7489">(additional_shm_size_bytes)</text></g><g class="message" data-participant-1="Proxy" data-participant-2="SHM"><polygon fill="#181818" points="784.6957,450.2639,774.6957,454.2639,784.6957,458.2639,780.6957,454.2639" style="stroke:#181818;stroke-width:1;"/><line style="stroke:#181818;stroke-width:1;" x1="778.6957" x2="1042.5779" y1="454.2639" y2="454.2639"/><text fill="#000000" font-family="sans-serif" font-size="13" lengthAdjust="spacing" textLength="245.8822" x="790.6957" y="448.4549">map into proxy's shared memory region</text></g><g class="message" data-participant-1="SHM" data-participant-2="Proxy"><polygon fill="#181818" points="1031.5779,464.2639,1041.5779,468.2639,1031.5779,472.2639,1035.5779,468.2639" style="stroke:#181818;stroke-width:1;"/><line style="stroke:#181818;stroke-width:1;stroke-dasharray:2,2;" x1="773.6957" x2="1037.5779" y1="468.2639" y2="468.2639"/></g><g class="message" data-participant-1="Proxy" data-participant-2="CP"><polygon fill="#181818" points="1520.6714,478.2639,1530.6714,482.2639,1520.6714,486.2639,1524.6714,482.2639" style="stroke:#181818;stroke-width:1;"/><line style="stroke:#181818;stroke-width:1;stroke-dasharray:2,2;" x1="1043.5779" x2="1526.6714" y1="482.2639" y2="482.2639"/></g><rect fill="#EEEEEE" height="3" style="stroke:#EEEEEE;stroke-width:1;" width="1683.8995" x="0" y="512.1169"/><line style="stroke:#000000;stroke-width:1;" x1="0" x2="1683.8995" y1="512.1169" y2="512.1169"/><line style="stroke:#000000;stroke-width:1;" x1="0" x2="1683.8995" y1="515.1169" y2="515.1169"/><rect fill="#EEEEEE" height="25.706" style="stroke:#000000;stroke-width:2;" width="192.8541" x="745.5227" y="500.2639"/><text fill="#000000" font-family="sans-serif" font-size="13" font-weight="bold" lengthAdjust="spacing" textLength="175.4741" x="751.5227" y="518.1609">Runtime: GetParameterSet</text><g class="message" data-participant-1="ConfigDaemon" data-participant-2="Skeleton"><polygon fill="#181818" points="450.0185,555.6759,460.0185,559.6759,450.0185,563.6759,454.0185,559.6759" style="stroke:#181818;stroke-width:1;"/><line style="stroke:#181818;stroke-width:1;" x1="61.5948" x2="456.0185" y1="559.6759" y2="559.6759"/><text fill="#000000" font-family="sans-serif" font-size="13" lengthAdjust="spacing" textLength="75.166" x="68.5948" y="553.8669">OfferService</text></g><g class="message" data-participant-1="CP" data-participant-2="Proxy"><polygon fill="#181818" points="1054.5779,587.382,1044.5779,591.382,1054.5779,595.382,1050.5779,591.382" style="stroke:#181818;stroke-width:1;"/><line style="stroke:#181818;stroke-width:1;" x1="1048.5779" x2="1531.6714" y1="591.382" y2="591.382"/><text fill="#000000" font-family="sans-serif" font-size="13" lengthAdjust="spacing" textLength="168.5971" x="1060.5779" y="585.573">get_parameterset.Allocate()</text></g><g class="message" data-participant-1="Proxy" data-participant-2="SHM"><polygon fill="#181818" points="784.6957,619.088,774.6957,623.088,784.6957,627.088,780.6957,623.088" style="stroke:#181818;stroke-width:1;"/><line style="stroke:#181818;stroke-width:1;" x1="778.6957" x2="1042.5779" y1="623.088" y2="623.088"/><text fill="#000000" font-family="sans-serif" font-size="13" lengthAdjust="spacing" textLength="212.3811" x="790.6957" y="617.279">allocate ParameterSetName buffer</text></g><g class="message" data-participant-1="SHM" data-participant-2="Proxy"><polygon fill="#181818" points="1031.5779,650.794,1041.5779,654.794,1031.5779,658.794,1035.5779,654.794" style="stroke:#181818;stroke-width:1;"/><line style="stroke:#181818;stroke-width:1;stroke-dasharray:2,2;" x1="773.6957" x2="1037.5779" y1="654.794" y2="654.794"/><text fill="#000000" font-family="sans-serif" font-size="13" lengthAdjust="spacing" textLength="203.7881" x="780.6957" y="648.985">return ParameterSetName buffer</text></g><g class="message" data-participant-1="CP" data-participant-2="Proxy"><polygon fill="#181818" points="1054.5779,682.5,1044.5779,686.5,1054.5779,690.5,1050.5779,686.5" style="stroke:#181818;stroke-width:1;"/><line style="stroke:#181818;stroke-width:1;" x1="1048.5779" x2="1531.6714" y1="686.5" y2="686.5"/><text fill="#000000" font-family="sans-serif" font-size="13" lengthAdjust="spacing" textLength="240.2142" x="1060.5779" y="680.691">fill name bytes into ParameterSetName</text></g><g class="message" data-participant-1="CP" data-participant-2="Proxy"><polygon fill="#181818" points="1054.5779,714.206,1044.5779,718.206,1054.5779,722.206,1050.5779,718.206" style="stroke:#181818;stroke-width:1;"/><line style="stroke:#181818;stroke-width:1;" x1="1048.5779" x2="1531.6714" y1="718.206" y2="718.206"/><text fill="#000000" font-family="sans-serif" font-size="13" lengthAdjust="spacing" textLength="237.1982" x="1060.5779" y="712.397">get_parameterset(ParameterSetName)</text></g><g class="message" data-participant-1="Proxy" data-participant-2="SHM"><polygon fill="#181818" points="784.6957,745.912,774.6957,749.912,784.6957,753.912,780.6957,749.912" style="stroke:#181818;stroke-width:1;"/><line style="stroke:#181818;stroke-width:1;" x1="778.6957" x2="1042.5779" y1="749.912" y2="749.912"/><text fill="#000000" font-family="sans-serif" font-size="13" lengthAdjust="spacing" textLength="209.1702" x="790.6957" y="744.103">write request into shared memory</text></g><g class="message" data-participant-1="SHM" data-participant-2="Skeleton"><polygon fill="#181818" points="473.0185,777.6181,463.0185,781.6181,473.0185,785.6181,469.0185,781.6181" style="stroke:#181818;stroke-width:1;"/><line style="stroke:#181818;stroke-width:1;" x1="467.0185" x2="772.6957" y1="781.6181" y2="781.6181"/><text fill="#000000" font-family="sans-serif" font-size="13" lengthAdjust="spacing" textLength="150.3711" x="479.0185" y="775.8091">method handler invoked</text></g><g class="message" data-participant-1="Skeleton" data-participant-2="PSC"><polygon fill="#181818" points="223.8193,809.3241,213.8193,813.3241,223.8193,817.3241,219.8193,813.3241" style="stroke:#181818;stroke-width:1;"/><line style="stroke:#181818;stroke-width:1;" x1="217.8193" x2="461.0185" y1="813.3241" y2="813.3241"/><text fill="#000000" font-family="sans-serif" font-size="13" lengthAdjust="spacing" textLength="188.8772" x="229.8193" y="807.5151">look up ParameterSet by name</text></g><g class="message" data-participant-1="PSC" data-participant-2="Skeleton"><polygon fill="#181818" points="450.0185,858.7361,460.0185,862.7361,450.0185,866.7361,454.0185,862.7361" style="stroke:#181818;stroke-width:1;"/><line style="stroke:#181818;stroke-width:1;stroke-dasharray:2,2;" x1="212.8193" x2="456.0185" y1="862.7361" y2="862.7361"/><text fill="#000000" font-family="sans-serif" font-size="13" lengthAdjust="spacing" textLength="193.8301" x="219.8193" y="839.2211">serialized ParameterSetContent</text><text fill="#000000" font-family="sans-serif" font-size="13" lengthAdjust="spacing" textLength="225.1992" x="219.8193" y="856.9271">(or kParameterSetNotFoundContent)</text></g><g class="message" data-participant-1="Skeleton" data-participant-2="SHM"><polygon fill="#181818" points="761.6957,890.4421,771.6957,894.4421,761.6957,898.4421,765.6957,894.4421" style="stroke:#181818;stroke-width:1;"/><line style="stroke:#181818;stroke-width:1;" x1="462.0185" x2="767.6957" y1="894.4421" y2="894.4421"/><text fill="#000000" font-family="sans-serif" font-size="13" lengthAdjust="spacing" textLength="273.8452" x="469.0185" y="888.6331">write ParameterSetContent into result buffer</text></g><g class="message" data-participant-1="SHM" data-participant-2="Proxy"><polygon fill="#181818" points="1031.5779,922.1481,1041.5779,926.1481,1031.5779,930.1481,1035.5779,926.1481" style="stroke:#181818;stroke-width:1;"/><line style="stroke:#181818;stroke-width:1;stroke-dasharray:2,2;" x1="773.6957" x2="1037.5779" y1="926.1481" y2="926.1481"/><text fill="#000000" font-family="sans-serif" font-size="13" lengthAdjust="spacing" textLength="232.6222" x="780.6957" y="920.3391">method returns ParameterSetContent</text></g><g class="message" data-participant-1="Proxy" data-participant-2="CP"><polygon fill="#181818" points="1520.6714,953.8542,1530.6714,957.8542,1520.6714,961.8542,1524.6714,957.8542" style="stroke:#181818;stroke-width:1;"/><line style="stroke:#181818;stroke-width:1;stroke-dasharray:2,2;" x1="1043.5779" x2="1526.6714" y1="957.8542" y2="957.8542"/><text fill="#000000" font-family="sans-serif" font-size="13" lengthAdjust="spacing" textLength="185.3282" x="1050.5779" y="952.0452">Result&lt;ParameterSetContent&gt;</text></g><g class="message" data-participant-1="CP" data-participant-2="CP"><line style="stroke:#181818;stroke-width:1;stroke-dasharray:2,2;" x1="1532.6714" x2="1574.6714" y1="989.5602" y2="989.5602"/><line style="stroke:#181818;stroke-width:1;stroke-dasharray:2,2;" x1="1574.6714" x2="1574.6714" y1="989.5602" y2="1002.5602"/><line style="stroke:#181818;stroke-width:1;stroke-dasharray:2,2;" x1="1533.6714" x2="1574.6714" y1="1002.5602" y2="1002.5602"/><polygon fill="#181818" points="1543.6714,998.5602,1533.6714,1002.5602,1543.6714,1006.5602,1539.6714,1002.5602" style="stroke:#181818;stroke-width:1;"/><text fill="#000000" font-family="sans-serif" font-size="13" lengthAdjust="spacing" textLength="137.2281" x="1539.6714" y="983.7512">parse JSON and return</text></g><path d="M626,1015.5602 L626,1095.5602 L920,1095.5602 L920,1025.5602 L910,1015.5602 L626,1015.5602" fill="#FEFFDD" style="stroke:#181818;stroke-width:0.5;"/><path d="M910,1015.5602 L910,1025.5602 L920,1025.5602 L910,1015.5602" fill="#FEFFDD" style="stroke:#181818;stroke-width:0.5;"/><text fill="#000000" font-family="sans-serif" font-size="13" lengthAdjust="spacing" textLength="273.2083" x="632" y="1034.4572">A bad usage of the mw::com method with an</text><text fill="#000000" font-family="sans-serif" font-size="13" lengthAdjust="spacing" textLength="262.0412" x="632" y="1052.1632">undersized pre-allocated SHM may cause a</text><text fill="#000000" font-family="sans-serif" font-size="13" lengthAdjust="spacing" textLength="265.1483" x="632" y="1069.8692">runtime memory issue if the actual payload</text><text fill="#000000" font-family="sans-serif" font-size="13" lengthAdjust="spacing" textLength="196.8201" x="632" y="1087.5752">exceeds the estimated max size.</text><!--SRC=[ZLNBRjim4BphAnQvr4Rh77eqwW21WpOkuCI8UYnWhAMLHPWYLPAoutnzbwJaIAwJ9YU7cdtCp7BfX9C4ZxKJMi7NAIp9bJgVRD1I3YiqM94ZavA3Es6T4Pic84VLOJhDT0MBrNoS93KQ9p9Het9mDTUg4Dixf4ghAq0B_OCXj5zWhgMap6SFGQjqFiHs5TCTIN9Q_LQZXU9GXJ8MM1cz5pcPS5fWHkEGgCCdEJhqlE0gBT4mlIKtP8wSfpOqGIbrXexoBr3XCzHub1fpiEAbotE_lDmGrttsMLAgnDrHOIMoLAYjf8MoZf42FQdK6Sw-FSPa8UPC2-RFOV2hD8HvH7b9pDkImHopagB6_jSb7pfL8cgL9BCPB9JWhgHu2Pt1R9OaVOzWSdDI3QOmvtuSZKHWaz7QrfI9Gf0PlnVrH5iU63Btg78cCTgIMzTTxvRSE3c1VU3zacDC6mCs6bG5Wy8nmmfj-CIF9sJiLk9Z9hsYlOHyEXYw957Q4UWzvuxI0_zXdWil0CgrBQkrjtgzEJgoCFE548GgD7mEyp2GlHkE2v_OVW99QklAM4DAq0KSIf6LtBQ23G5P9oe_Qi2Aib-CEG8wu66g1Tz6_ae9gHnyqspDoYiKsZwv0NNuTo_mj_hOtF60libtdCJi9oCgh9cyqx7C9tlHa9C1KT4sXPUUfyoFsLEZF9Kf_20t4Ea_0_TO51vdzY9Z-bx5eGJdetHzszxTqJYWpyXqDtjWr8FtQTFuIY5cm2MCeckCUZTas5GXsEdWVXoX8Dzv-0V8ZCvZBd8w6C643FrfU9XYhO55hvm6ohRNfuntakFsUaTv1FTk8-zU1akjTz3Km_dU70F9s1F39iC2banOB6UF1vljI3cUGRx3km53xRxhHkKjOlnFBts-5r96xePi8zrxVhRCewtsKgQ-p668mnBpURzTGD-ShEomR2A_BJ_JnmTWUTjA_SNZ7n0VT0iRtXsDnItvrU1AWkufQRiy25Toae1cRNWkWgA3PoemhF38IwNXkXZ09jwuxfuAQni24MjWvXgKtUuAS7hEY78RFhyk9R_JVC7hrntq5m00]--></g></svg>